<svg width="465" height="257" viewBox="0 0 465 257" fill="none" xmlns="http://www.w3.org/2000/svg">
<path d="M229.961 163.467C232.683 163.467 235.404 163.46 238.125 163.447C307.469 163.105 375.485 174.734 441.816 194.419C450.462 197.094 458.07 199.907 463.304 207.652C464.95 210.944 464.948 214.109 464.304 217.652C461.975 222.424 459.464 226.771 454.304 228.652C446.454 229.971 439.707 228.049 432.439 225.286C426.042 222.858 419.565 220.863 412.992 218.965C412.014 218.68 411.037 218.395 410.03 218.101C403.16 216.123 396.249 214.346 389.304 212.652C389.512 221.566 389.371 230.484 389.586 239.398C389.586 248.051 381.5 257 372.5 257C363.5 257 357.165 247.539 357.191 239.618C357.192 227.963 357.252 216.307 357.304 204.652C344.558 202.045 332.058 200 318.304 198.652C318.458 209.6 318.432 220.553 318.644 231.5C318.644 243.821 309.5 251 301 251C292.5 251 285.919 243.821 285.919 232.074C285.919 219.884 286.086 207.688 286.304 195.5C274.058 194.5 264.058 194 247.368 193.652C247.569 205.905 247.479 218.166 247.757 230.417C247.757 241 242.5 248.914 232.996 248.914C223.491 248.914 217.016 242 217.016 229.552C217.069 217.585 217.156 205.618 217.304 193.652C203.558 194 190.69 194.965 177.368 196.014C177.571 208.041 177.712 220.079 177.712 232.108C177.712 244.573 170 251 162 251C154 251 145.833 244.5 145.833 232.006C145.833 221.224 146.043 210.431 146.304 199.652C133.613 201.418 120.5 203.014 108.304 205.652C108.167 216.444 107.88 227.235 107.796 238.026C107.707 249.5 98.5 257.082 90.5 257C82.6217 256.919 75.8264 247.293 76.0111 238.727C76.0605 230.035 76.1681 221.343 76.3041 212.652C69.7933 214.447 63.2829 216.244 56.7729 218.042C54.5617 218.652 52.3504 219.262 50.1391 219.872C46.9464 220.752 43.7541 221.634 40.5619 222.516C39.5855 222.784 38.609 223.053 37.603 223.33C32.2382 224.814 26.9073 226.365 21.6024 228.051C16.7017 229.333 11.7507 230.009 7.19082 227.48C2.96934 224.089 0.696976 221.007 0.0580105 215.551C-0.24435 210.072 0.558078 206.891 4.3041 202.652C9.72976 198.291 15.8211 196.667 22.4291 194.715C89.6009 174.431 159.751 163.456 229.961 163.467Z" fill="#2DAAFF"/>
<path d="M261 3.77428C262.313 4.06431 262.313 4.06431 263.652 4.36021C282.799 9.26642 299.131 21.1397 313 34.7743C313.78 35.5181 314.56 36.2619 315.363 37.0282C324.797 46.6633 331.5 58.1359 335.5 68.5C338.48 76.2214 340 79.5 341 84C344.173 84.6708 350.5 85.6141 356.5 87.8641C364.345 90.8058 373.969 95.0971 383 102.774C383.764 103.423 383.764 103.423 384.542 104.084C400.816 118.047 416.318 138.226 418.875 160.274C418.937 162.007 418.937 162.007 419 163.774C417.747 163.493 416.494 163.212 415.203 162.923C411.636 162.128 408.063 161.368 404.484 160.626C402.573 160.217 400.661 159.808 398.75 159.399C397.783 159.203 396.816 159.007 395.82 158.806C384.542 157.5 383.01 153.523 379.062 145.962C371.221 131.746 359.092 121.546 343.418 116.657C333.743 113.966 323.978 112.713 314 111.774C313.915 111.227 313.831 110.68 313.744 110.116C309.898 85.9977 302.169 66.0492 283 49.7743C263.408 35.642 239.403 29.6268 215.477 33.3876C195.755 37.1899 177.048 48.6564 165 64.7743C155.353 79.4987 151.063 94.6121 148 111.774C147.042 111.788 146.084 111.803 145.098 111.817C121 112.174 104.888 119.621 90 134.774C86.8426 138.522 85 142 82.2578 147.036C78.5 153.5 72.5 154.5 65.4058 156.274C61.0586 157.178 56.7858 158.368 52.5 159.524C50.8648 159.957 49.2294 160.39 47.5938 160.821C46.4078 161.136 45.2219 161.45 44 161.774C49.2234 135.844 63.1147 113.221 85.0183 98.1642C95.7527 91.0982 106.5 85.5 121 83.3641C120.866 84.2633 121.13 82.4914 121 83.3641C125.271 59.6952 145.297 35.1946 164.599 21.6527C176.185 13.6776 188.422 7.61714 202 3.77428C203.035 3.47392 204.07 3.17357 205.137 2.86412C223.085 -1.536 243.124 -0.577884 261 3.77428Z" fill="#2DAAFF"/>
</svg>
